<?xml version="1.0" encoding="utf-8"?>
<!-- Generator: Adobe Illustrator 27.4.0, SVG Export Plug-In . SVG Version: 6.00 Build 0)  -->
<svg version="1.1" id="Layer_1" xmlns="http://www.w3.org/2000/svg" xmlns:xlink="http://www.w3.org/1999/xlink" x="0px" y="0px"
	 viewBox="0 0 1204.9 168.4" style="enable-background:new 0 0 1204.9 168.4;" xml:space="preserve">
<style type="text/css">
	.st0{fill:#051c2c;}
</style>
<g>
	<polygon class="st0" points="239.1,0.2 215.1,0.2 215.1,142.5 215.1,164.8 215.1,166.5 317.6,166.5 317.6,142.5 239.1,142.5 	"/>
	<polygon class="st0" points="358.2,0.2 334.2,0.2 334.2,142.5 334.2,164.8 334.2,166.5 436.7,166.5 436.7,142.5 358.2,142.5 	"/>
	<path class="st0" d="M577.6,84.3c7.2-8.2,10.9-19,10.9-31.9c0-15.1-4.9-27.4-14.7-36.5C564.1,6.7,549.7,2.1,531,2.1h-58.3v164.7
		h27.5v-65.3h17.9l40.6,65.1l0.2,0.3h31l-43-66.6C560.2,97.7,570.5,92.4,577.6,84.3z M500.3,25.9h28.6c10.8,0,18.8,2.5,23.8,7.4
		c5,4.9,7.6,11.8,7.6,20.6c0,18.6-10.3,27.7-31.4,27.7h-28.6V25.9z"/>
	<rect x="611.2" y="2.1" class="st0" width="27.5" height="164.7"/>
	<path class="st0" d="M754.4,82.6c-6.6-3.3-15.1-6.6-25.4-9.9c-8.1-2.8-14.6-5.2-19.3-7.3c-4.6-2-8.5-4.9-11.5-8.4
		c-3-3.5-4.5-8-4.5-13.4c0-6.9,2.2-12.2,6.5-15.9c4.3-3.7,10.2-5.5,17.5-5.5c8,0,14.4,2.2,19,6.4c4.6,4.3,7.5,9.5,8.5,15.5l0.1,0.5
		h29.6l-0.1-0.6c-1.4-13.1-7.1-23.8-17-31.9C747.9,4.1,734.4,0,717.7,0c-10.5,0-20,1.8-28,5.5c-8.1,3.7-14.4,8.9-18.8,15.6
		c-4.4,6.7-6.6,14.6-6.6,23.5c0,10.1,2.3,18.4,6.8,24.7c4.5,6.2,10.1,11,16.5,14.3c6.4,3.2,14.8,6.5,25,9.8
		c8.3,2.8,14.9,5.2,19.6,7.4c4.7,2.1,8.7,5.1,11.8,8.8c3.1,3.7,4.7,8.4,4.7,14.1c0,6.6-2.2,12.1-6.4,16.3
		c-4.3,4.2-10.4,6.3-18.2,6.3c-8.8,0-15.8-2.5-21-7.5c-5.2-5-8.2-11-9-18l-0.1-0.5h-29.4l0,0.6c0.8,9.3,3.9,17.7,9.1,24.8
		c5.3,7.2,12.4,12.8,21.3,16.7c8.8,4,19,6,30.1,6c11.5,0,21.3-2.1,29.2-6.3c7.9-4.2,13.9-9.8,17.8-16.8c3.9-6.9,5.9-14.5,5.9-22.6
		c0-10.4-2.3-18.9-6.9-25.4C766.7,90.9,761,86,754.4,82.6z"/>
	<polygon class="st0" points="803.5,166.8 898.2,166.8 898.2,144.1 831.1,144.1 831.1,94.5 891.3,94.5 891.3,73 831.1,73
		831.1,24.5 898.2,24.5 898.2,2.1 803.5,2.1 	"/>
	<path class="st0" d="M1173.2,3.4c-17.5,0-31.7,14.2-31.7,31.7s14.2,31.7,31.7,31.7c17.5,0,31.7-14.2,31.7-31.7
		S1190.7,3.4,1173.2,3.4z M1173.2,49.2c-7.8,0-14.1-6.3-14.1-14.1c0-7.8,6.3-14.1,14.1-14.1c7.8,0,14.1,6.3,14.1,14.1
		C1187.3,42.8,1181,49.2,1173.2,49.2z"/>
	<path class="st0" d="M1047.6,24.2L934,166.8h30.6L1069.4,35c4-5,10.1-8,16.5-8h13.3v17c-7,0-13.7,3.3-18,8.8l-87.8,113.8h35.3
		l70.5-89.8v89.8h24.7V0h-26.1C1078.3,0,1059.8,8.9,1047.6,24.2z"/>
	<path class="st0" d="M113.6,24.2L0,166.8h30.6L135.3,35c4-5,10.1-8,16.5-8h13.3v17c-7,0-13.7,3.3-18,8.8L59.4,166.8h35.3L165.2,77
		v89.8h24.7V0h-26.1C144.3,0,125.8,8.9,113.6,24.2z"/>
	<rect x="1160.9" y="79.6" class="st0" width="24.7" height="87.1"/>
</g>
</svg>
